<svg id="Calque_1" data-name="Calque 1" xmlns="http://www.w3.org/2000/svg" viewBox="0 0 179.65 135.75"><defs><style>.cls-1{fill:#0069ab;}.cls-2{fill:none;}.cls-3{fill:#0069b4;}</style></defs><g id="unesco_blue"><path class="cls-1" d="M150.72,103.79a7,7,0,1,1,0-10l.18.18,3.2-6.82-.12-.08a14.14,14.14,0,0,0-8.24-2.62,14.28,14.28,0,1,0,8.23,26l.12-.08-3.16-6.72Z" transform="translate(-5.56 -5.21)"/><path class="cls-1" d="M171,84.51a14.26,14.26,0,1,0,14.25,14.25A14.27,14.27,0,0,0,171,84.51m0,21.34a7,7,0,1,1,7-7,7,7,0,0,1-7,7" transform="translate(-5.56 -5.21)"/><path class="cls-1" d="M15,85.36V100.1a5.64,5.64,0,0,0,1.5,4.32,5.14,5.14,0,0,0,3.6,1.25,5.39,5.39,0,0,0,3.65-1.25,5.82,5.82,0,0,0,1.44-4.32V85.36h8.63v15.58c0,3.06-.3,5.93-3,8.57-3.06,3-7.56,3.48-10.73,3.48s-7.73-.48-10.79-3.48c-2.46-2.4-2.94-5.09-2.94-8V85.36Z" transform="translate(-5.56 -5.21)"/><path class="cls-1" d="M40.49,85.36h8.63v3.17a9.79,9.79,0,0,1,8.28-3.89,10.57,10.57,0,0,1,7.67,2.69c2.51,2.52,2.69,5.7,2.69,7.85v16.91H59.13V98.36c0-1.74-.06-4-1.44-5.33a4.49,4.49,0,0,0-3.29-1.2,4.7,4.7,0,0,0-3.6,1.44,6.82,6.82,0,0,0-1.68,5.09v13.73H40.49Z" transform="translate(-5.56 -5.21)"/><path class="cls-1" d="M101.87,100.22h-20a7.28,7.28,0,0,0,1.62,4.55A5.76,5.76,0,0,0,88,106.45a7.1,7.1,0,0,0,3.48-.78,5.19,5.19,0,0,0,1.85-2.21l8.16.84A12,12,0,0,1,96.29,111a15.85,15.85,0,0,1-8.45,2c-4,0-7.55-.72-10.67-3.84a14.39,14.39,0,0,1-4-10.31,15.25,15.25,0,0,1,4.07-10.55,14,14,0,0,1,10.25-3.83c3,0,7.31.54,10.61,4s3.78,7.55,3.78,10.85Zm-8-5.16A6.73,6.73,0,0,0,92.16,92a6.33,6.33,0,0,0-8.45.24,6,6,0,0,0-1.5,2.87Z" transform="translate(-5.56 -5.21)"/><path class="cls-1" d="M123.62,92.19a9.82,9.82,0,0,0-4.73-1.5,3.67,3.67,0,0,0-2.46.78,1.85,1.85,0,0,0-.54,1.2,1.4,1.4,0,0,0,.84,1.2,14.76,14.76,0,0,0,2.58.89l2.27.72A11.38,11.38,0,0,1,126,97.82a6.38,6.38,0,0,1,2.1,5.1,9.71,9.71,0,0,1-2.76,7c-2.64,2.64-5.88,3-8.69,3a15.87,15.87,0,0,1-11-3.83l3.66-5.81a14.9,14.9,0,0,0,2.93,2,8.08,8.08,0,0,0,3.6.84,4.83,4.83,0,0,0,2.7-.6,2.26,2.26,0,0,0,.89-1.73,1.75,1.75,0,0,0-1-1.56,11.39,11.39,0,0,0-2.64-1l-2.16-.66a10.65,10.65,0,0,1-4.31-2.46,6.59,6.59,0,0,1-1.92-4.85,8.29,8.29,0,0,1,2.58-6.18c2.39-2.21,5.63-2.69,8.09-2.69A17,17,0,0,1,127,86.73Z" transform="translate(-5.56 -5.21)"/></g><rect class="cls-2" x="88.79" y="1.81" width="86.27" height="60.54"/><path class="cls-1" d="M67.71,46.74V31.11a.4.4,0,0,0-.43-.39.38.38,0,0,0-.39.39V46.74s0,.35.43.35S67.71,46.74,67.71,46.74Z" transform="translate(-5.56 -5.21)"/><path class="cls-1" d="M6.33,5.21V69.37h176V5.21Zm27,41.88c.39,0,.39-.3.39-.3v-17h1.09V46.74a1.25,1.25,0,0,1-1.4,1.31A1.34,1.34,0,0,1,32,46.74V29.8h1.09V46.7A.3.3,0,0,0,33.36,47.09ZM71.16,49v1.74H29.51V49Zm-32.35-1V29.8h.87l1.1,9.76V29.8h.91V48.05h-.91l-1.1-11v11Zm9.35-10.21v1H47v8.25h1.57v1h-2.8V29.8h2.41v.92H47v7.12Zm5.39,9.23c.28,0,.28-.33.28-.33V42.53c0-1.77-1.7-5.63-1.7-7.92v-3.5a1.35,1.35,0,0,1,1.44-1.31A1.27,1.27,0,0,1,55,31.11v4.11H53.83V31.11s0-.39-.31-.39-.26.39-.26.39v4.11c0,1.35,1.7,5.43,1.7,7.58,0,.89,0,3.94,0,3.94a1.33,1.33,0,0,1-1.45,1.31,1.27,1.27,0,0,1-1.39-1.31V42.16h1.13v4.58A.32.32,0,0,0,53.55,47.07Zm6.83-16.35a.38.38,0,0,0-.39.39V46.74a.42.42,0,0,0,.39.35.34.34,0,0,0,.35-.35V42.16h1.09v4.58a1.33,1.33,0,0,1-1.44,1.31A1.28,1.28,0,0,1,59,46.74V31.11a1.31,1.31,0,0,1,1.4-1.31,1.36,1.36,0,0,1,1.44,1.31v4.11H60.73V31.11S60.73,30.72,60.38,30.72Zm5.41,16V31.11a1.36,1.36,0,0,1,1.53-1.31,1.26,1.26,0,0,1,1.44,1.31V46.74a1.36,1.36,0,0,1-1.53,1.31A1.33,1.33,0,0,1,65.79,46.74Zm-36.28-18V27H71.16v1.75Zm3.37-2.87,17.44-5.33,17.22,5.33H62.48L50.32,22.16,37.94,25.87ZM29.51,24l20.81-6.42L71.16,24v1.88L50.32,19.54,29.51,25.87ZM27.16,52H73.43v1.74H27.16ZM75.7,56.69H25V54.94H75.7ZM180.62,67.56H94.35V7h86.27Z" transform="translate(-5.56 -5.21)"/><path id="sigle_sans_text_vierge" class="cls-3" d="M141.51,53.3h0V47l-.05,0,9.78-9.78-14-14-14,14,10,10v6.08a16.83,16.83,0,1,1,8.22,0m-4.25-36.13a19.91,19.91,0,0,0-2.92,39.61,2.24,2.24,0,0,0,.55.07,1.42,1.42,0,0,0,1.43-1.47V45.6l-8.46-8.47,9.52-9.52,9.52,9.52-8.45,8.46,0,0v9.76c0,1.06.64,1.71,1.54,1.5a19.92,19.92,0,0,0-2.76-39.64" transform="translate(-5.56 -5.21)"/><path class="cls-1" d="M8.1,137.62,5.56,126.83h2l1,4.9c.26,1.31.51,2.69.67,3.76h0c.16-1.14.46-2.42.75-3.78l1.12-4.88h2l1,5c.26,1.28.48,2.48.63,3.65h0c.19-1.18.43-2.42.71-3.73l1.07-4.88h1.93l-2.79,10.79h-2l-1.08-5.08a31.26,31.26,0,0,1-.57-3.42h0c-.18,1.15-.38,2.19-.69,3.42l-1.2,5.08Z" transform="translate(-5.56 -5.21)"/><path class="cls-1" d="M26.18,133.65a3.79,3.79,0,0,1-3.84,4.14,3.7,3.7,0,0,1-3.75-4,3.77,3.77,0,0,1,3.87-4.13A3.67,3.67,0,0,1,26.18,133.65Zm-5.64.08c0,1.5.71,2.64,1.86,2.64s1.83-1.1,1.83-2.67c0-1.22-.53-2.61-1.82-2.61S20.54,132.43,20.54,133.73Z" transform="translate(-5.56 -5.21)"/><path class="cls-1" d="M27.47,132.34c0-1.06,0-1.81-.06-2.52h1.64l.07,1.49h.06a2.24,2.24,0,0,1,2-1.66,1.59,1.59,0,0,1,.45,0v1.85a2.82,2.82,0,0,0-.56-.06A1.69,1.69,0,0,0,29.42,133a3.47,3.47,0,0,0-.06.6v4H27.47Z" transform="translate(-5.56 -5.21)"/><path class="cls-1" d="M32.66,126.25h1.91v11.37H32.66Z" transform="translate(-5.56 -5.21)"/><path class="cls-1" d="M43.28,126.25v9.17c0,.81,0,1.67.06,2.2H41.65l-.08-1.23h0a2.68,2.68,0,0,1-2.44,1.4c-1.79,0-3.2-1.58-3.2-4,0-2.61,1.55-4.16,3.35-4.16a2.35,2.35,0,0,1,2.11,1h0v-4.42Zm-1.89,6.82a2.94,2.94,0,0,0,0-.51,1.67,1.67,0,0,0-1.63-1.39c-1.21,0-1.89,1.12-1.89,2.57s.68,2.47,1.88,2.47a1.68,1.68,0,0,0,1.62-1.39,2.15,2.15,0,0,0,.07-.58Z" transform="translate(-5.56 -5.21)"/><path class="cls-1" d="M50.14,126.83v4.32h4.38v-4.32h1.89v10.79H54.52v-4.76H50.14v4.76H48.25V126.83Z" transform="translate(-5.56 -5.21)"/><path class="cls-1" d="M59.65,134.27a2.06,2.06,0,0,0,2.3,2,5.53,5.53,0,0,0,2.08-.35l.28,1.36a6.88,6.88,0,0,1-2.62.48,3.61,3.61,0,0,1-3.85-3.94c0-2.16,1.26-4.19,3.65-4.19s3.23,2.08,3.23,3.79a5,5,0,0,1-.06.83Zm3.29-1.37c0-.72-.29-1.91-1.55-1.91a1.91,1.91,0,0,0-1.74,1.91Z" transform="translate(-5.56 -5.21)"/><path class="cls-1" d="M66,132.34c0-1.06,0-1.81-.06-2.52h1.64l.06,1.49h.06a2.25,2.25,0,0,1,2-1.66,1.52,1.52,0,0,1,.44,0v1.85a2.63,2.63,0,0,0-.55-.06A1.69,1.69,0,0,0,68,133a3.47,3.47,0,0,0-.06.6v4H66Z" transform="translate(-5.56 -5.21)"/><path class="cls-1" d="M73.23,127.65a1,1,0,0,1-1.08,1,1,1,0,0,1-1-1,1.06,1.06,0,1,1,2.12,0Zm-2,10v-7.8h1.9v7.8Z" transform="translate(-5.56 -5.21)"/><path class="cls-1" d="M77,127.6v2.22h1.8v1.48H77v3.44c0,.94.25,1.44,1,1.44a2.63,2.63,0,0,0,.74-.1l0,1.51a4.09,4.09,0,0,1-1.37.19,2.14,2.14,0,0,1-1.63-.64,3.2,3.2,0,0,1-.58-2.18V131.3H74.11v-1.48h1.08v-1.76Z" transform="translate(-5.56 -5.21)"/><path class="cls-1" d="M84.31,137.62l-.12-.87h0a2.72,2.72,0,0,1-2.21,1,2.26,2.26,0,0,1-2.35-2.32c0-2,1.67-3,4.44-2.94v-.13c0-.51-.2-1.36-1.52-1.36a3.84,3.84,0,0,0-2,.58l-.36-1.29a5.23,5.23,0,0,1,2.7-.68c2.4,0,3.09,1.58,3.09,3.28v2.82a12.53,12.53,0,0,0,.11,1.87Zm-.24-3.81c-1.34,0-2.62.27-2.62,1.46a1,1,0,0,0,1.08,1.12A1.54,1.54,0,0,0,84,135.31a1.33,1.33,0,0,0,.07-.43Z" transform="translate(-5.56 -5.21)"/><path class="cls-1" d="M94.47,129.82c0,.53-.07,1.17-.07,2.24v4.42A4.66,4.66,0,0,1,93.3,140a4.2,4.2,0,0,1-2.89.94,5.07,5.07,0,0,1-2.61-.62l.41-1.49a4.39,4.39,0,0,0,2.18.59c1.23,0,2.16-.67,2.16-2.35v-.67h0a2.48,2.48,0,0,1-2.18,1.15c-1.86,0-3.18-1.6-3.18-3.81,0-2.56,1.6-4.11,3.4-4.11a2.32,2.32,0,0,1,2.16,1.21h0l.07-1Zm-2,3.12a1.81,1.81,0,0,0-.06-.52,1.58,1.58,0,0,0-1.53-1.27c-1.06,0-1.85,1-1.85,2.55,0,1.33.65,2.4,1.83,2.4a1.63,1.63,0,0,0,1.54-1.19,4,4,0,0,0,.07-.7Z" transform="translate(-5.56 -5.21)"/><path class="cls-1" d="M97.54,134.27a2.06,2.06,0,0,0,2.3,2,5.53,5.53,0,0,0,2.08-.35l.27,1.36a6.79,6.79,0,0,1-2.61.48,3.61,3.61,0,0,1-3.85-3.94c0-2.16,1.26-4.19,3.65-4.19s3.23,2.08,3.23,3.79a5,5,0,0,1-.06.83Zm3.29-1.37A1.67,1.67,0,0,0,99.27,131c-1.16,0-1.65,1.11-1.73,1.91Z" transform="translate(-5.56 -5.21)"/><path class="cls-1" d="M114.5,137.3a6.35,6.35,0,0,1-2.68.48c-3.28,0-5.28-2.15-5.28-5.43a5.32,5.32,0,0,1,5.53-5.7,5.83,5.83,0,0,1,2.52.48l-.41,1.57a5,5,0,0,0-2-.41c-2.11,0-3.63,1.37-3.63,4,0,2.36,1.34,3.89,3.61,3.89a5.1,5.1,0,0,0,2.06-.4Z" transform="translate(-5.56 -5.21)"/><path class="cls-1" d="M122.68,133.65a3.78,3.78,0,0,1-3.84,4.14,3.7,3.7,0,0,1-3.75-4,3.78,3.78,0,0,1,3.88-4.13A3.67,3.67,0,0,1,122.68,133.65Zm-5.64.08c0,1.5.71,2.64,1.86,2.64s1.83-1.1,1.83-2.67c0-1.22-.52-2.61-1.81-2.61S117,132.43,117,133.73Z" transform="translate(-5.56 -5.21)"/><path class="cls-1" d="M124,132.14c0-.89,0-1.64-.06-2.32h1.66l.09,1.17h0a2.69,2.69,0,0,1,2.39-1.34c1.3,0,2.65.88,2.65,3.34v4.63h-1.89v-4.4c0-1.12-.4-2-1.42-2A1.6,1.6,0,0,0,126,132.4a2.16,2.16,0,0,0-.08.64v4.58H124Z" transform="translate(-5.56 -5.21)"/><path class="cls-1" d="M133.42,129.82l1.22,4c.21.68.37,1.31.51,1.95h0c.14-.64.31-1.25.51-1.95l1.18-4h2l-2.86,7.8h-1.86l-2.78-7.8Z" transform="translate(-5.56 -5.21)"/><path class="cls-1" d="M140.89,134.27a2.05,2.05,0,0,0,2.3,2,5.53,5.53,0,0,0,2.08-.35l.27,1.36a6.83,6.83,0,0,1-2.61.48,3.61,3.61,0,0,1-3.86-3.94c0-2.16,1.26-4.19,3.66-4.19s3.23,2.08,3.23,3.79a5,5,0,0,1-.06.83Zm3.28-1.37a1.66,1.66,0,0,0-1.55-1.91,1.89,1.89,0,0,0-1.73,1.91Z" transform="translate(-5.56 -5.21)"/><path class="cls-1" d="M147.26,132.14c0-.89,0-1.64-.06-2.32h1.66L149,131H149a2.67,2.67,0,0,1,2.38-1.34c1.31,0,2.66.88,2.66,3.34v4.63h-1.89v-4.4c0-1.12-.4-2-1.43-2a1.61,1.61,0,0,0-1.48,1.15,2.17,2.17,0,0,0-.07.64v4.58h-1.91Z" transform="translate(-5.56 -5.21)"/><path class="cls-1" d="M157.86,127.6v2.22h1.8v1.48h-1.8v3.44c0,.94.25,1.44,1,1.44a2.63,2.63,0,0,0,.74-.1l0,1.51a4.09,4.09,0,0,1-1.37.19,2.14,2.14,0,0,1-1.63-.64A3.2,3.2,0,0,1,156,135V131.3h-1.08v-1.48H156v-1.76Z" transform="translate(-5.56 -5.21)"/><path class="cls-1" d="M162.76,127.65a1.06,1.06,0,0,1-2.12,0,1.06,1.06,0,1,1,2.12,0Zm-2,10v-7.8h1.91v7.8Z" transform="translate(-5.56 -5.21)"/><path class="cls-1" d="M171.52,133.65a3.79,3.79,0,0,1-3.84,4.14,3.7,3.7,0,0,1-3.75-4,3.77,3.77,0,0,1,3.87-4.13A3.67,3.67,0,0,1,171.52,133.65Zm-5.64.08c0,1.5.71,2.64,1.86,2.64s1.83-1.1,1.83-2.67c0-1.22-.52-2.61-1.81-2.61S165.88,132.43,165.88,133.73Z" transform="translate(-5.56 -5.21)"/><path class="cls-1" d="M172.81,132.14c0-.89,0-1.64-.06-2.32h1.66l.09,1.17h.05a2.67,2.67,0,0,1,2.38-1.34c1.31,0,2.66.88,2.66,3.34v4.63H177.7v-4.4c0-1.12-.4-2-1.43-2a1.59,1.59,0,0,0-1.47,1.15,1.87,1.87,0,0,0-.08.64v4.58h-1.91Z" transform="translate(-5.56 -5.21)"/></svg>